<?xml version="1.0"?>
<svg xmlns="http://www.w3.org/2000/svg" xmlns:xlink="http://www.w3.org/1999/xlink" version="1.1" id="Capa_1" x="0px" y="0px" viewBox="0 0 478.453 478.453" style="enable-background:new 0 0 478.453 478.453;" xml:space="preserve" width="512px" height="512px" class=""><g><g id="behance_2_">
	<g>
		<path d="M189.086,225.494c0,0,45.402-3.6,45.402-56.884c0-53.221-37.188-84.379-84.23-84.379H0v308.36h141.077    c0,0,103.716-2.508,103.716-93.324C244.793,299.267,248.921,225.494,189.086,225.494z M150.258,145.9    c0,0,19.327-0.99,19.327,29.974c0,30.947-10.661,31.703-24.69,31.703H61.679V145.9H150.258z M146.284,330.924    c-25.642,0-84.605,0-84.605,0v-77.092h88.579c0,0,31.346,0.553,31.346,41.811C181.604,330.066,159.299,330.924,146.284,330.924z" data-original="#000000" class="active-path" data-old_color="#ffffff" fill="#ffffff"/>
	</g>
	<g>
		<path d="M370.874,166.086c-114.423,0-114.331,113.947-114.331,113.947s-7.902,114.188,114.331,114.188    c0,0,101.813-1.63,101.813-78.721h-52.341c0,0-0.125,30.268-49.534,31.321c-17.053,0.366-46.994-3.375-46.994-46.737h154.199    C478.017,300.085,491.329,166.086,370.874,166.086z M417.307,253.832h-97.761c0,0,6.501-44.236,52.497-44.236    C417.992,209.596,417.307,253.832,417.307,253.832z" data-original="#000000" class="active-path" data-old_color="#ffffff" fill="#ffffff"/>
	</g>
	<g>
		<rect x="308.402" y="99.654" width="123.353" height="46.246" data-original="#000000" class="active-path" data-old_color="#ffffff" fill="#ffffff"/>
	</g>
</g></g> </svg>
