<?xml version="1.0"?>
<svg xmlns="http://www.w3.org/2000/svg" id="Layer_1" data-name="Layer 1" viewBox="0 0 512 512" width="512px" height="512px"><g><title class="active-path" style="fill:#000000">Blackboard</title><path d="M471.245,20H40.755A21.519,21.519,0,0,0,19,41.648V83.927A21.879,21.879,0,0,0,40.755,106H42V366.265A32.509,32.509,0,0,0,74.594,399H250v38.8l-56.869,43.8a6,6,0,1,0,7.322,9.507l55.09-42.43,55.574,42.445a6,6,0,0,0,7.284-9.537L262,438.507V399H436.957A32.891,32.891,0,0,0,470,366.265V106h1.245A21.879,21.879,0,0,0,493,83.927V41.648A21.519,21.519,0,0,0,471.245,20ZM458,366.265A20.878,20.878,0,0,1,436.957,387H257.533c-.49,0-1-.2-1.533-.2s-1.043.2-1.533.2H74.594A20.5,20.5,0,0,1,54,366.265V106H458ZM481,84a10,10,0,0,1-10,10H41A10,10,0,0,1,31,84V42A10,10,0,0,1,41,32H471a10,10,0,0,1,10,10Z" data-original="#000000" class="active-path" fill="#c69963"/><path d="M99.979,197.322,143,214.11V320.617a6.1,6.1,0,0,0,4.019,5.622,286.6,286.6,0,0,0,200,0A6.075,6.075,0,0,0,351,320.617V214.11L386,200.5V305.658a23.634,23.634,0,1,0,12-.1V192.905a6.074,6.074,0,0,0-.112-.663c.016-.189,0-.376,0-.568a6.017,6.017,0,0,0-3.949-5.575l-144.8-53.221a6.013,6.013,0,0,0-4.144,0L100.2,186.1a6.055,6.055,0,0,0-3.988,5.575A5.95,5.95,0,0,0,99.979,197.322ZM155,316.417V282.209a286.951,286.951,0,0,0,184,0v34.208C280,337.527,215,337.527,155,316.417Zm184-46.91a275.149,275.149,0,0,1-184,0V218.78l89.771,34.893a6.29,6.29,0,0,0,2.233.409,6.425,6.425,0,0,0,2.258-.409L339,218.78Zm64.731,59.021a11.695,11.695,0,1,1-11.694-11.694A11.708,11.708,0,0,1,403.731,328.528ZM247.061,144.9,374.9,191.891,343.21,204.223a6.012,6.012,0,0,0-.933.363l-95.216,37.058-95.216-37.058a5.937,5.937,0,0,0-.932-.362l-31.689-12.333Z" data-original="#000000" class="active-path" fill="#c69963"/></g> </svg>
