<?xml version="1.0"?>
<svg xmlns="http://www.w3.org/2000/svg" id="Capa_1" enable-background="new 0 0 464.013 464.013" height="512px" viewBox="0 0 464.013 464.013" width="512px" class=""><g><path d="m464.007 15.75c.123-3.047-2.248-5.617-5.295-5.74-.13-.005-.259-.006-.389-.002h-452.634c-3.048-.092-5.593 2.304-5.685 5.352-.004.13-.003.26.002.39v361.188c-.15 3.2 2.323 5.915 5.523 6.065.053.003.107.004.16.005h158.4l-16.635 59h-28.981c-3.314 0-6 2.686-6 6s2.686 6 6 6h227.066c3.314 0 6-2.686 6-6s-2.686-6-6-6h-28.984l-16.635-59h158.4c3.203-.059 5.751-2.704 5.691-5.907-.001-.054-.003-.109-.005-.163v-69-12zm-452.001 6.258h440v274h-440zm292.086 420h-144.172l16.635-59h110.9zm147.915-71h-440v-63h440z" data-original="#000000" class="active-path" data-old_color="#c69963" fill="#c69963"/><path d="m213.68 120.6c-1.998-2.64-5.758-3.162-8.4-1.167l-47.394 35.837c-2.643 1.999-3.165 5.762-1.166 8.405.333.441.726.833 1.166 1.166l47.394 35.838c2.618 2.031 6.387 1.555 8.418-1.064s1.555-6.387-1.064-8.418c-.039-.03-.078-.06-.118-.089l-41.065-31.052 41.061-31.048c2.644-1.998 3.168-5.76 1.17-8.404 0-.002-.001-.003-.002-.004z" data-original="#000000" class="active-path" data-old_color="#c69963" fill="#c69963"/><path d="m306.132 155.27-47.394-35.837c-2.644-1.999-6.408-1.476-8.407 1.169s-1.476 6.408 1.169 8.406l41.065 31.052-41.065 31.048c-2.657 1.98-3.206 5.739-1.226 8.396s5.739 3.206 8.396 1.226c.023-.017.045-.034.068-.051l47.394-35.838c2.643-1.999 3.165-5.762 1.166-8.405-.333-.441-.726-.833-1.166-1.166z" data-original="#000000" class="active-path" data-old_color="#c69963" fill="#c69963"/><path d="m240.992 100.966c-3.275-.492-6.331 1.76-6.83 5.034l-16.178 106.893c-.497 3.276 1.756 6.335 5.033 6.833s6.335-1.756 6.833-5.033l16.177-106.893c.498-3.276-1.754-6.335-5.03-6.833-.002-.001-.003-.001-.005-.001z" data-original="#000000" class="active-path" data-old_color="#c69963" fill="#c69963"/><path d="m232.006 49.608c-60.972 0-110.4 49.428-110.4 110.4s49.428 110.4 110.4 110.4 110.4-49.428 110.4-110.4c-.067-60.945-49.455-110.333-110.4-110.4zm0 208.8c-54.345 0-98.4-44.055-98.4-98.4s44.055-98.4 98.4-98.4 98.4 44.055 98.4 98.4c-.06 54.32-44.08 98.34-98.4 98.4z" data-original="#000000" class="active-path" data-old_color="#c69963" fill="#c69963"/></g> </svg>
