<?xml version="1.0"?>
<svg xmlns="http://www.w3.org/2000/svg" id="Capa_1" enable-background="new 0 0 454.035 454.035" height="512px" viewBox="0 0 454.035 454.035" width="512px"><g><path d="m152.186 195.608 43.544 36.09c2.551 2.115 6.334 1.761 8.449-.79s1.761-6.334-.79-8.449l-37.97-31.471 37.97-31.471c2.551-2.115 2.905-5.897.79-8.449s-5.897-2.905-8.449-.79l-43.544 36.09c-2.552 2.114-2.906 5.897-.792 8.448.238.289.504.554.792.792z" data-original="#000000" class="active-path" data-old_color="#c69963" fill="#c69963"/><path d="m249.858 230.907c2.115 2.551 5.897 2.905 8.448.791l43.544-36.09c2.552-2.114 2.906-5.897.792-8.448-.239-.288-.504-.553-.792-.792l-43.544-36.09c-2.551-2.115-6.334-1.761-8.448.791-2.115 2.551-1.761 6.334.79 8.448l37.97 31.471-37.97 31.471c-2.551 2.115-2.905 5.897-.79 8.448z" data-original="#000000" class="active-path" data-old_color="#c69963" fill="#c69963"/><path d="m217.93 251.035c3.276.496 6.334-1.759 6.83-5.035l16.293-107.646c.497-3.276-1.756-6.335-5.033-6.833-3.276-.497-6.335 1.756-6.832 5.033l-16.293 107.65c-.496 3.276 1.758 6.335 5.034 6.831z" data-original="#000000" class="active-path" data-old_color="#c69963" fill="#c69963"/><path d="m447.717 168.497-60.7-50.208v-71.762c0-3.313-2.451-5.5-5.765-5.5h-87.077l-35.533-29.7c-18.379-15.15-44.931-15.098-63.25.125l-35.532 29.575h-88.166c-2.933-.197-5.47 2.02-5.667 4.953-.012.182-.015.365-.009.547v72.762l-59.651 49.2c-1.453 1.057-2.317 2.741-2.328 4.538h-.021v275.352c.037 3.16 2.63 5.692 5.79 5.655.075-.001.15-.003.225-.007h433.97c3.157.161 5.846-2.267 6.008-5.423.004-.075.006-.15.007-.225v-275.352h-.021c.005-1.786-.842-3.469-2.28-4.53zm-13.646 4.451-47.053 35.1v-74.163zm-231.02-152.382c13.935-11.474 34.059-11.422 47.934.125l24.385 20.336h-96.7zm171.967 32.461v163.973l-125.661 93.827c-13.265 9.863-31.428 9.863-44.693 0l-126.646-94.639v-163.161zm-309 81.846v72.363l-45.958-34.284zm-50 307.154v-256.866l181.36 135.285c17.617 13.014 41.661 13.014 59.278 0l181.362-135.285v256.866z" data-original="#000000" class="active-path" data-old_color="#c69963" fill="#c69963"/></g> </svg>
